<svg xmlns="http://www.w3.org/2000/svg" version="1.1" viewBox="-5.0 -10.0 110.0 135.0">
 <path d="m33.891 10.055c-0.82031-0.91797-0.74219-2.3281 0.17578-3.1523 1.3867-1.2422 3.0273-1.9648 4.7227-2.1406 1.707-0.17578 3.4492 0.19922 5.0273 1.1562 1.1133 0.67578 2.0586 1.5781 2.7969 2.6406 0.73047 1.0508 1.2773 2.2734 1.5977 3.5938 0.28906 1.1992-0.44531 2.4062-1.6445 2.6953-1.1992 0.28906-2.4062-0.44531-2.6953-1.6445-0.18359-0.76172-0.50391-1.4727-0.92969-2.0859-0.40234-0.57813-0.88672-1.0508-1.4297-1.3828-0.71484-0.43359-1.5-0.60547-2.2617-0.52734-0.77344 0.078125-1.5352 0.42188-2.2031 1.0195-0.91797 0.82031-2.3281 0.74219-3.1523-0.17578zm19.551 4.7969c1.1992 0.28906 2.4062-0.44531 2.6953-1.6445 0.18359-0.76172 0.50391-1.4727 0.92969-2.0859 0.40234-0.57812 0.88672-1.0508 1.4297-1.3828 0.71484-0.43359 1.5-0.60547 2.2617-0.52734 0.77344 0.078124 1.5352 0.42187 2.2031 1.0195 0.91797 0.82031 2.3281 0.74219 3.1523-0.17578 0.82031-0.91797 0.74219-2.3281-0.17578-3.1523-1.3867-1.2422-3.0273-1.9648-4.7227-2.1406-1.707-0.17578-3.4492 0.19922-5.0273 1.1562-1.1133 0.67578-2.0586 1.5781-2.7969 2.6406-0.73047 1.0508-1.2773 2.2734-1.5977 3.5938-0.28906 1.1992 0.44531 2.4062 1.6445 2.6953zm-3.4375 80.426c3.3945 0 6.5078-2.293 8.9531-6.1211h-17.902c2.4414 3.8242 5.5586 6.1211 8.9531 6.1211zm-4.5625-35.012h9.1211c-1.7188-2.2578-3.2734-4.6602-4.5625-7.1523-1.2852 2.4922-2.8438 4.8945-4.5625 7.1523zm-7.0117 23.516h23.148c0.72266-1.9492 1.3164-4.0938 1.7539-6.3789h-26.656c0.4375 2.2852 1.0312 4.4258 1.7539 6.3789zm20.773-18.133h-18.398c-0.20703 0.21484-0.41797 0.42578-0.625 0.63672-1.3516 1.3516-2.8008 2.6758-4.332 3.9336 0.027344 0.60938 0.0625 1.2109 0.10938 1.8086h28.094c0.046875-0.59766 0.085938-1.1992 0.10938-1.8086-1.5312-1.2578-2.9805-2.582-4.332-3.9336-0.21094-0.21094-0.41797-0.42188-0.625-0.63672zm-19.695-39.855c0 0.48828 0.035157 0.96875 0.097657 1.4414 3.7617-0.15234 7.4648 0.78125 10.305 3.6211l0.097656 0.097656c0.03125-0.03125 0.0625-0.066406 0.097657-0.097656 2.8398-2.8398 6.5391-3.7734 10.305-3.6211 0.066406-0.47266 0.097656-0.95312 0.097656-1.4414 0-5.7969-4.6992-10.5-10.5-10.5-5.8008 0-10.5 4.6992-10.5 10.5zm42.219 18.594c-10.367-10.367-22.824-14.727-27.82-9.7305s-0.64062 17.453 9.7305 27.82c10.367 10.367 22.824 14.727 27.82 9.7305 4.9961-4.9961 0.64062-17.453-9.7305-27.82zm-35.621-9.7305c-4.9961-4.9961-17.453-0.64062-27.82 9.7305-10.367 10.367-14.727 22.824-9.7305 27.82 4.9961 4.9961 17.453 0.64062 27.82-9.7305 10.367-10.367 14.727-22.824 9.7305-27.82z" fill-rule="evenodd"/>
<text x="0.0" y="117.5" font-size="5.0" font-weight="bold" font-family="Arbeit Regular, Helvetica, Arial-Unicode, Arial, Sans-serif" fill="#000000">Created by Devi Wijayanti</text><text x="0.0" y="122.5" font-size="5.0" font-weight="bold" font-family="Arbeit Regular, Helvetica, Arial-Unicode, Arial, Sans-serif" fill="#000000">from Noun Project</text></svg>