<svg xmlns="http://www.w3.org/2000/svg" version="1.1" viewBox="-5.0 -10.0 110.0 135.0">
 <path d="m65 70c0 8.2812-6.7188 25-15 25s-15-16.719-15-25 6.7188-15 15-15 15 6.7188 15 15z"/>
 <path d="m60 42.5c0 6.9023-4.4766 12.5-10 12.5s-10-5.5977-10-12.5 4.4766-12.5 10-12.5 10 5.5977 10 12.5"/>
 <path d="m60 25.5c0 4.1406-4.4805 4.5-10 4.5s-10-0.35938-10-4.5 4.4805-10.5 10-10.5 10 6.3594 10 10.5z"/>
 <path d="m67 5c0 1.1016-0.89844 2-2 2h-0.10938c-4.5117 0-8.6289 2.1211-11.23 5.6484-1.1484-0.41016-2.3711-0.64844-3.6602-0.64844s-2.5117 0.23828-3.6602 0.64844c-2.6016-3.5312-6.7188-5.6484-11.23-5.6484h-0.10938c-1.1016 0-2-0.89844-2-2s0.89844-2 2-2h0.10938c6.0508 0 11.57 2.9688 14.891 7.8789 3.3203-4.9102 8.8398-7.8789 14.891-7.8789h0.10938c1.1016 0 2 0.89844 2 2z"/>
 <path d="m39.922 32.73c-0.73047 1.0703-1.3516 2.2617-1.8281 3.5508l-8.9805-4.4883c-0.39062-0.19141-0.71094-0.51172-0.89844-0.89844l-4.6992-9.3984-9.3984-4.6992c-0.98828-0.5-1.3906-1.6992-0.89844-2.6797 0.5-0.98828 1.6914-1.3984 2.6797-0.89844l10 5c0.39062 0.19141 0.71094 0.51172 0.89844 0.89844l4.6992 9.3984 8.4297 4.2188z"/>
 <path d="m85.891 16.789-9.3984 4.6992-4.6992 9.3984c-0.19141 0.39062-0.51172 0.71094-0.89844 0.89844l-8.9805 4.4883c-0.48047-1.2891-1.1016-2.4805-1.8281-3.5508l8.4297-4.2188 4.6992-9.3984c0.19141-0.39062 0.51172-0.71094 0.89844-0.89844l10-5c0.98828-0.5 2.1914-0.089843 2.6797 0.89844 0.48828 0.98047 0.089843 2.1797-0.89844 2.6797z"/>
 <path d="m40.059 52.461-18.059 13.539v14c0 0.53125-0.21094 1.0391-0.58984 1.4102l-10 10c-0.39062 0.39062-0.89844 0.58984-1.4102 0.58984s-1.0195-0.19922-1.4102-0.58984c-0.78906-0.78125-0.78906-2.0391 0-2.8203l9.4102-9.4219v-14.172c0-0.62891 0.30078-1.2188 0.80078-1.6016l19.359-14.52c0.48828 1.3008 1.1289 2.5 1.8984 3.5781z"/>
 <path d="m91.41 91.41c-0.39062 0.39062-0.89844 0.58984-1.4102 0.58984s-1.0195-0.19922-1.4102-0.58984l-10-10c-0.37891-0.37109-0.58984-0.87891-0.58984-1.4102v-14l-18.059-13.539c0.76953-1.0781 1.4102-2.2812 1.8984-3.5781l19.359 14.52c0.5 0.37891 0.80078 0.96875 0.80078 1.6016v14.172l9.4102 9.4219c0.78906 0.78125 0.78906 2.0391 0 2.8203z"/>
 <path d="m37 42.5c0 0.67969 0.039062 1.3398 0.10938 2h-11.281l-9.4219 9.4102c-0.37109 0.37891-0.87891 0.58984-1.4102 0.58984h-5c-1.1016 0-2-0.89844-2-2s0.89844-2 2-2h4.1719l9.4219-9.4102c0.37109-0.37891 0.87891-0.58984 1.4102-0.58984h12.109c-0.070313 0.66016-0.10938 1.3203-0.10938 2z"/>
 <path d="m92 52.5c0 1.1016-0.89844 2-2 2h-5c-0.53125 0-1.0391-0.21094-1.4102-0.58984l-9.4219-9.4102h-11.281c0.070312-0.66016 0.10938-1.3203 0.10938-2s-0.039063-1.3398-0.10938-2h12.109c0.53125 0 1.0391 0.21094 1.4102 0.58984l9.4219 9.4102h4.1719c1.1016 0 2 0.89844 2 2z"/>
<text x="0.0" y="117.5" font-size="5.0" font-weight="bold" font-family="Arbeit Regular, Helvetica, Arial-Unicode, Arial, Sans-serif" fill="#000000">Created by Moch Rizki Eko Waluyo</text><text x="0.0" y="122.5" font-size="5.0" font-weight="bold" font-family="Arbeit Regular, Helvetica, Arial-Unicode, Arial, Sans-serif" fill="#000000">from Noun Project</text></svg>