<svg xmlns="http://www.w3.org/2000/svg" data-name="01 Mosquito" viewBox="0 0 64 80" x="0px" y="0px"><path d="M62.918,26.363l-24.254-7.186c-.555-2.19-1.769-3.656-3.362-4.448,1.033-.916,1.698-2.238,1.698-3.728,0-2.419-1.718-4.436-4-4.899V1c0-.552-.448-1-1-1s-1,.448-1,1V6.101c-2.282,.463-4,2.48-4,4.899,0,1.49,.664,2.812,1.698,3.728-1.592,.793-2.806,2.258-3.362,4.448L1.082,26.363c-.642,.19-1.082,.78-1.082,1.449,0,.552,.296,1.059,.781,1.324,2.027,1.107,7.686,3.777,13.219,2.548,5.064-1.125,8.861-4.467,11.214-7.174,.483,3.084,1.783,6.12,3.533,7.898-1.652,2.672-2.747,7.309-2.747,12.593,0,8.284,2.686,15,6,15s6-6.716,6-15c0-5.284-1.095-9.921-2.747-12.593,1.75-1.778,3.05-4.814,3.533-7.898,2.353,2.707,6.151,6.049,11.214,7.174,5.534,1.23,11.192-1.44,13.219-2.548,.485-.265,.781-.771,.781-1.324,0-.669-.44-1.259-1.082-1.449Z"/><path d="M17.051,14.316c.089,.267,.286,.483,.542,.597l6.126,2.723c.25-.681,.55-1.278,.883-1.796l-5.794-2.575L14.949,1.684c-.174-.523-.74-.808-1.265-.632-.524,.175-.807,.741-.632,1.265l4,12Z"/><path d="M46.406,14.914c.257-.114,.454-.331,.542-.597l4-12c.175-.524-.108-1.09-.632-1.265-.526-.176-1.091,.109-1.265,.632l-3.86,11.582-5.794,2.575c.333,.518,.633,1.115,.883,1.796l6.126-2.723Z"/><path d="M17.4,34.2c-.184,.138-.314,.334-.37,.557l-1.896,7.586-6.629,3.789c-.479,.274-.646,.885-.372,1.364,.185,.323,.522,.504,.869,.504,.168,0,.339-.042,.495-.132l7-4c.237-.135,.408-.361,.474-.625l1.914-7.656,6.327-4.745c-.315-.589-.607-1.204-.862-1.853l-6.949,5.212Z"/><path d="M55.496,46.132l-6.629-3.789-1.896-7.586c-.056-.223-.187-.419-.37-.557l-6.949-5.212c-.255,.649-.547,1.264-.862,1.853l6.327,4.745,1.914,7.656c.066,.264,.237,.49,.474,.625l7,4c.156,.089,.327,.132,.495,.132,.347,0,.685-.181,.869-.504,.274-.479,.107-1.09-.372-1.364Z"/><path d="M42.131,53.768l2.817-8.451c.104-.312,.048-.654-.149-.917l-5.734-7.645c.326,1.339,.567,2.788,.724,4.299l3.096,4.128-2.834,8.503c-.113,.339-.036,.713,.201,.981l8,9c.198,.222,.472,.335,.748,.335,.236,0,.473-.083,.664-.252,.413-.367,.45-.999,.083-1.412l-7.616-8.568Z"/><path d="M19.051,45.316l2.817,8.451-7.616,8.568c-.367,.413-.33,1.045,.083,1.412,.191,.169,.428,.252,.664,.252,.276,0,.55-.113,.748-.335l8-9c.237-.268,.314-.642,.201-.981l-2.834-8.503,3.096-4.128c.157-1.51,.398-2.96,.724-4.299l-5.734,7.645c-.197,.263-.252,.605-.149,.917Z"/><text x="0" y="79" fill="#000000" font-size="5px" font-weight="bold" font-family="'Helvetica Neue', Helvetica, Arial-Unicode, Arial, Sans-serif">Created by Berkah Icon</text><text x="0" y="84" fill="#000000" font-size="5px" font-weight="bold" font-family="'Helvetica Neue', Helvetica, Arial-Unicode, Arial, Sans-serif">from the Noun Project</text></svg>