<?xml version="1.0" encoding="UTF-8" standalone="no"?>
<svg
   viewBox="0 0 130 130"
   fill="none"
   x="0px"
   y="0px"
   version="1.1"
   id="svg8"
   sodipodi:docname="no.svg"
   inkscape:version="1.2.2 (b0a8486541, 2022-12-01)"
   width="130"
   height="130"
   xmlns:inkscape="http://www.inkscape.org/namespaces/inkscape"
   xmlns:sodipodi="http://sodipodi.sourceforge.net/DTD/sodipodi-0.dtd"
   xmlns="http://www.w3.org/2000/svg"
   xmlns:svg="http://www.w3.org/2000/svg">
  <defs
     id="defs12" />
  <sodipodi:namedview
     id="namedview10"
     pagecolor="#ffffff"
     bordercolor="#000000"
     borderopacity="0.25"
     inkscape:showpageshadow="2"
     inkscape:pageopacity="0.0"
     inkscape:pagecheckerboard="0"
     inkscape:deskcolor="#d1d1d1"
     showgrid="false"
     inkscape:zoom="6.9010989"
     inkscape:cx="46.007166"
     inkscape:cy="57.454618"
     inkscape:window-width="1854"
     inkscape:window-height="1011"
     inkscape:window-x="0"
     inkscape:window-y="0"
     inkscape:window-maximized="1"
     inkscape:current-layer="svg8" />
  <path
     fill-rule="evenodd"
     clip-rule="evenodd"
     d="m 65,130 c 35.89857,0 65,-29.10143 65,-65 C 130,29.101428 100.89857,0 65,0 29.101428,0 0,29.101428 0,65 c 0,35.89857 29.101428,65 65,65 z m 0,-8.55257 c 31.174997,0 56.44743,-25.272433 56.44743,-56.44743 0,-14.286429 -5.30743,-27.333143 -14.058,-37.276285 L 27.723715,107.38943 C 37.666857,116.14 50.713571,121.44743 65,121.44743 Z M 21.613143,101.11157 101.11157,21.613143 C 91.324426,13.4583 78.735143,8.5526282 65,8.5526282 33.825,8.5526282 8.5526282,33.825 8.5526282,65 c 0,13.735143 4.9056718,26.324426 13.0605148,36.11157 z"
     fill="#000000"
     id="path2"
     style="fill:#8b1135;fill-opacity:1;stroke-width:1.42857" />
</svg>
