<svg xmlns="http://www.w3.org/2000/svg" data-name="Camada 1" viewBox="0 0 50 62.5" x="0px" y="0px"><title>beetle</title><path d="M17.311,17.64736l-.04634.4171a5.87072,5.87072,0,0,0,.54,3.11682,1.79233,1.79233,0,0,0,2.13587.89912A18.01388,18.01388,0,0,1,25,21.40968a18.01387,18.01387,0,0,1,5.05944.67072,1.79233,1.79233,0,0,0,2.13587-.89912,5.87081,5.87081,0,0,0,.54-3.11682l-.04634-.4171a5.15048,5.15048,0,0,1,.59407-2.97868c1.1881-2.195,2.83542-6.80843-2.29616-9.59752a.55008.55008,0,0,0-.69518.82157c1.12071,1.44931,2.24139,3.3705.99432,4.07408-1.26426.7122-1.79506-.013-2.01828-.71252a.2362.2362,0,0,0-.4571.01985,3.35187,3.35187,0,0,0,.9502,2.81189,1.13441,1.13441,0,0,1,.13061,1.46194.11209.11209,0,0,0-.02106.0253,1.549,1.549,0,0,1-1.94647.40866.02185.02185,0,0,0-.01684-.00843,6.27405,6.27405,0,0,0-5.81411,0,.02194.02194,0,0,0-.01687.00843,1.549,1.549,0,0,1-1.94646-.40866.11182.11182,0,0,0-.02106-.0253,1.13444,1.13444,0,0,1,.1306-1.46194,3.35188,3.35188,0,0,0,.95023-2.81191.23622.23622,0,0,0-.45713-.01983c-.22318.69953-.754,1.42472-2.01825.71252-1.24709-.70358-.12638-2.62477.9943-4.07408a.55007.55007,0,0,0-.69515-.82157c-5.13162,2.78909-3.48427,7.40247-2.29616,9.59752A5.15085,5.15085,0,0,1,17.311,17.64736Z"/><path d="M43.81583,33.29911l-2.46469-1.05747a1.43959,1.43959,0,0,1-.68253-.6025L39.1898,29.14076a3.14032,3.14032,0,0,0-2.709-1.54621h-3.973v-1.719a.2589.2589,0,0,0-.00422-.05477l.80051-.27384a6.15352,6.15352,0,0,0,3.89714-4.14572,8.57752,8.57752,0,0,1,2.99131-4.79033.85827.85827,0,0,0,.3202-1.07012.84827.84827,0,0,0-1.24288-.34127,10.17317,10.17317,0,0,0-3.68648,5.73828,4.47572,4.47572,0,0,1-2.827,3.01659l-.81313.27808-.01265.00422-.02106.00841a.33712.33712,0,0,0-.05477-.05478l-.00422-.00421A13.36767,13.36767,0,0,0,25,22.67362a13.36782,13.36782,0,0,0-6.85055,1.5125l-.00419.00421a.33592.33592,0,0,0-.05477.05478l-.02109-.00841-.01262-.00422-.81313-.27808a4.47579,4.47579,0,0,1-2.827-3.01659,10.17308,10.17308,0,0,0-3.68649-5.73828.84827.84827,0,0,0-1.24288.34127.8583.8583,0,0,0,.32021,1.07012,8.5776,8.5776,0,0,1,2.99133,4.79033A6.15347,6.15347,0,0,0,16.69594,25.547l.80047.27384a.2595.2595,0,0,0-.00421.05477v1.719h-3.973a3.14037,3.14037,0,0,0-2.709,1.54621L9.33137,31.63914a1.43953,1.43953,0,0,1-.68252.6025L6.18418,33.29911a.84172.84172,0,1,0,.66568,1.54624l2.46045-1.05328a3.14832,3.14832,0,0,0,1.4746-1.29344L12.2595,29.996a1.46413,1.46413,0,0,1,1.25972-.71624h3.973v1.76108h-.74993a3.63012,3.63012,0,0,0-3.61487,3.31573L12.83248,37.744a6.38475,6.38475,0,0,1-1.55465,3.64856L9.858,43.01458a.842.842,0,0,0,1.26816,1.10806l1.41982-1.622a8.07722,8.07722,0,0,0,1.96752-4.61338l.29071-3.38312a1.94732,1.94732,0,0,1,1.93805-1.778h.74993V37.251a7.38453,7.38453,0,0,0,1.53358,4.51648,13.93318,13.93318,0,0,0,3.13749,2.98767,1.41473,1.41473,0,0,0,2.20475-1.1737V31.26585a.646.646,0,0,1,.47-.63474.6328.6328,0,0,1,.79394.612V43.58149a1.41473,1.41473,0,0,0,2.20475,1.17369,13.93254,13.93254,0,0,0,3.13749-2.98767A7.38454,7.38454,0,0,0,32.50779,37.251v-4.5249h.74995a1.94732,1.94732,0,0,1,1.938,1.778l.2907,3.38312A8.07723,8.07723,0,0,0,37.454,42.50059l1.41982,1.622A.842.842,0,1,0,40.142,43.01458l-1.41982-1.622A6.38487,6.38487,0,0,1,37.16751,37.744l-.29493-3.38737a3.6301,3.6301,0,0,0-3.61484-3.31573h-.74995V29.2798h3.973a1.46412,1.46412,0,0,1,1.25973.71624l1.47459,2.50259a3.14839,3.14839,0,0,0,1.47459,1.29344l2.46048,1.05328a.84172.84172,0,1,0,.66568-1.54624Z"/><text x="0" y="65" fill="#000000" font-size="5px" font-weight="bold" font-family="'Helvetica Neue', Helvetica, Arial-Unicode, Arial, Sans-serif">Created by Luiz Carvalho</text><text x="0" y="70" fill="#000000" font-size="5px" font-weight="bold" font-family="'Helvetica Neue', Helvetica, Arial-Unicode, Arial, Sans-serif">from the Noun Project</text></svg>