<?xml version="1.0" encoding="UTF-8" standalone="no"?>
<!-- Created with Inkscape (http://www.inkscape.org/) -->

<svg
   id="svg2457"
   sodipodi:version="0.32"
   inkscape:version="1.2.2 (b0a8486541, 2022-12-01)"
   width="230.31497"
   height="318.84155"
   version="1.0"
   sodipodi:docname="bot_c.svg"
   inkscape:output_extension="org.inkscape.output.svg.inkscape"
   xmlns:inkscape="http://www.inkscape.org/namespaces/inkscape"
   xmlns:sodipodi="http://sodipodi.sourceforge.net/DTD/sodipodi-0.dtd"
   xmlns="http://www.w3.org/2000/svg"
   xmlns:svg="http://www.w3.org/2000/svg"
   xmlns:rdf="http://www.w3.org/1999/02/22-rdf-syntax-ns#"
   xmlns:cc="http://creativecommons.org/ns#"
   xmlns:dc="http://purl.org/dc/elements/1.1/">
  <metadata
     id="metadata2462">
    <rdf:RDF>
      <cc:Work
         rdf:about="">
        <dc:format>image/svg+xml</dc:format>
        <dc:type
           rdf:resource="http://purl.org/dc/dcmitype/StillImage" />
      </cc:Work>
    </rdf:RDF>
  </metadata>
  <defs
     id="defs2460">
    <inkscape:perspective
       sodipodi:type="inkscape:persp3d"
       inkscape:vp_x="0 : 526.18109 : 1"
       inkscape:vp_y="0 : 1000 : 0"
       inkscape:vp_z="744.09448 : 526.18109 : 1"
       inkscape:persp3d-origin="372.04724 : 350.78739 : 1"
       id="perspective2464" />
  </defs>
  <sodipodi:namedview
     inkscape:window-height="936"
     inkscape:window-width="972"
     inkscape:pageshadow="2"
     inkscape:pageopacity="0.0"
     guidetolerance="10.0"
     gridtolerance="10.0"
     objecttolerance="10.0"
     borderopacity="1.0"
     bordercolor="#666666"
     pagecolor="#ffffff"
     id="base"
     showgrid="false"
     inkscape:zoom="1.1463374"
     inkscape:cx="122.12809"
     inkscape:cy="234.66041"
     inkscape:window-x="26"
     inkscape:window-y="23"
     inkscape:current-layer="g3496"
     inkscape:showpageshadow="2"
     inkscape:pagecheckerboard="0"
     inkscape:deskcolor="#d1d1d1"
     inkscape:window-maximized="0" />
  <g
     id="g3496">
    <path
       sodipodi:nodetypes="cssssssssssssssssssssssssssssssssssssssssccsssssssssssssssssssssssssssc"
       style="fill:#000000;fill-opacity:1"
       d="m 161.59658,279.42079 c -3.70977,-0.52035 -7.04779,-2.8878 -8.51249,-6.03735 -0.68528,-1.47357 -0.92352,-2.53794 -0.94398,-4.21736 -0.0194,-1.59056 0.33811,-3.15253 1.04606,-4.57056 0.73674,-1.47573 1.44476,-2.36992 2.9985,-3.78697 1.32713,-1.21038 1.61324,-1.68577 1.1269,-1.87239 -0.43625,-0.1674 -0.65532,-0.0928 -1.2175,0.41433 -1.2747,1.15004 -3.4049,2.24043 -4.85458,2.48495 -1.54339,0.26032 -3.52242,0.11541 -4.87161,-0.35675 -2.81783,-0.98608 -5.36557,-3.64584 -6.23566,-6.50978 -1.4167,-4.66316 -0.0505,-9.40286 3.71572,-12.89086 1.1009,-1.01957 3.12682,-2.05339 4.5196,-2.30633 1.56378,-0.284 3.66273,-0.2045 4.88995,0.18522 1.51947,0.48252 3.10823,1.45345 4.28155,2.61656 1.23746,1.2267 2.30003,3.2229 2.98678,5.61111 0.5505,1.91436 0.87333,2.31484 1.42296,1.76523 0.20818,-0.20818 0.23193,-0.44013 0.14887,-1.45378 -0.32441,-3.9589 -1.06444,-7.13455 -2.44253,-10.48146 -0.89741,-2.17949 -1.13679,-2.62718 -2.44355,-4.56998 -0.55375,-0.82329 -0.95633,-1.54544 -0.89463,-1.60478 0.23642,-0.22737 15.2464,-0.20937 15.2464,0.0183 0,0.0823 -0.5033,0.89611 -1.11845,1.80842 -1.08677,1.61174 -2.91254,5.1384 -3.71163,7.16943 -1.04559,2.65753 -2.11054,7.82501 -1.7966,8.71769 0.16047,0.45628 0.56073,0.6157 0.88018,0.35056 0.11186,-0.0928 0.28414,-0.50538 0.38283,-0.91674 0.63012,-2.62665 2.33605,-5.15214 4.6927,-6.9471 0.74174,-0.56496 2.47694,-1.31084 3.7824,-1.62587 1.36026,-0.32828 4.13204,-0.3315 5.36904,-0.006 2.08128,0.54722 4.20753,2.00923 5.27108,3.62443 1.69116,2.56833 2.45488,5.38575 2.18747,8.06972 -0.2754,2.76418 -1.26502,5.29298 -2.65779,6.7914 -0.78365,0.8431 -2.69155,2.14594 -3.96214,2.70559 -1.77259,0.7808 -4.70415,0.72892 -6.96449,-0.1232 -1.26995,-0.47876 -3.17094,-1.62225 -4.02565,-2.42152 -0.73172,-0.68427 -0.98137,-0.77729 -1.28124,-0.47742 -0.32973,0.32973 -0.1839,0.69079 0.51067,1.26444 2.85591,2.35873 4.05177,4.00314 4.82641,6.63678 0.293,0.99607 0.32675,1.3683 0.25694,2.833 -0.11288,2.3688 -0.60714,3.78883 -2.0056,5.76222 -1.18664,1.67448 -3.97002,3.58861 -6.00393,4.12888 -1.04875,0.27857 -3.38,0.38919 -4.59896,0.21821 z m 43.44095,-15.85614 c -1.65654,-0.42959 -2.89186,-1.47018 -3.62394,-3.05273 -0.31703,-0.68529 -0.39244,-1.07301 -0.39668,-2.03903 -0.006,-1.47387 0.3689,-2.36644 1.60998,-3.82847 0.46476,-0.5475 0.84503,-1.03395 0.84503,-1.08101 0,-0.22412 -0.74519,-0.0343 -1.84505,0.46993 -1.02835,0.47148 -1.35987,0.55347 -2.19177,0.54205 -1.90305,-0.0261 -3.69806,-1.25957 -4.2496,-2.9201 -0.38782,-1.16763 -0.24953,-3.65653 0.2649,-4.76738 0.83951,-1.81285 2.4343,-2.80675 4.49353,-2.80042 2.27218,0.007 3.85116,1.30483 4.58492,3.76864 0.29517,0.99116 0.59947,1.34107 0.90261,1.03792 0.10092,-0.10091 0.0714,-0.60917 -0.0899,-1.54813 -0.4359,-2.53673 -0.82518,-3.91681 -1.48799,-5.27516 -0.35998,-0.73779 -0.6099,-1.38455 -0.55534,-1.43724 0.23442,-0.22645 6.73438,-0.21624 6.73438,0.0106 0,0.0761 -0.23165,0.52904 -0.51477,1.00646 -0.65683,1.10757 -1.76493,3.86802 -2.09061,5.208 -0.2748,1.13061 -0.25998,2.01352 0.0354,2.11052 0.18553,0.0609 0.3008,-0.1649 0.85719,-1.6791 0.40639,-1.10594 1.68467,-2.32228 2.80891,-2.6728 1.58824,-0.49518 3.81073,-0.10379 4.84678,0.85354 1.56793,1.44883 2.06963,4.53506 1.06033,6.52278 -0.35193,0.69313 -1.49763,1.73909 -2.28024,2.08175 -1.48226,0.64898 -2.78176,0.52688 -4.82607,-0.45346 -1.887,-0.9049 -2.00241,-0.77065 -0.62567,0.72785 1.50267,1.63557 2.10795,3.51753 1.70977,5.3161 -0.27782,1.25499 -0.41657,1.54484 -1.12152,2.34294 -1.19307,1.3507 -3.18463,1.98904 -4.85456,1.55598 z"
       id="path2478" />
  </g>
  <g
     id="g3796"
     transform="translate(1.593878e-6,0)">
    <rect
       ry="11.25"
       rx="11.25"
       y="3.4247196"
       x="3.6058116"
       height="311.81104"
       width="223.22835"
       id="rect2382"
       style="fill:none;fill-opacity:1;fill-rule:nonzero;stroke:#000000;stroke-width:0.03543307;stroke-linejoin:round;stroke-miterlimit:4;stroke-dasharray:none;stroke-opacity:1" />
    <g
       transform="translate(3.5433116,3.3622195)"
       id="g3164">
      <path
         style="fill:none;fill-rule:evenodd;stroke:#000000;stroke-width:0.03221492;stroke-linecap:butt;stroke-linejoin:miter;stroke-miterlimit:4;stroke-dasharray:none;stroke-opacity:1"
         d="M 219.74754,0.062511534 L 226.70838,0.062511534"
         id="path3160"
         sodipodi:nodetypes="cc" />
      <path
         sodipodi:nodetypes="cc"
         id="path3162"
         d="M 223.29036,-3.2997195 L 223.29036,3.6063107"
         style="fill:none;fill-rule:evenodd;stroke:#000000;stroke-width:0.03196126;stroke-linecap:butt;stroke-linejoin:miter;stroke-miterlimit:4;stroke-dasharray:none;stroke-opacity:1" />
    </g>
    <g
       transform="matrix(1.0001093,0,0,1,3.519309,315.17275)"
       id="g3168">
      <path
         sodipodi:nodetypes="cc"
         id="path3170"
         d="M 219.74754,0.062511534 L 226.70838,0.062511534"
         style="fill:none;fill-rule:evenodd;stroke:#000000;stroke-width:0.03221492;stroke-linecap:butt;stroke-linejoin:miter;stroke-miterlimit:4;stroke-dasharray:none;stroke-opacity:1" />
      <path
         style="fill:none;fill-rule:evenodd;stroke:#000000;stroke-width:0.03196126;stroke-linecap:butt;stroke-linejoin:miter;stroke-miterlimit:4;stroke-dasharray:none;stroke-opacity:1"
         d="M 223.29036,-3.2997195 L 223.29036,3.6063107"
         id="path3172"
         sodipodi:nodetypes="cc" />
    </g>
    <g
       id="g3174"
       transform="matrix(1.0001093,0,0,1,-219.70906,315.17275)">
      <path
         style="fill:none;fill-rule:evenodd;stroke:#000000;stroke-width:0.03221492;stroke-linecap:butt;stroke-linejoin:miter;stroke-miterlimit:4;stroke-dasharray:none;stroke-opacity:1"
         d="M 219.74754,0.062511534 L 226.70838,0.062511534"
         id="path3176"
         sodipodi:nodetypes="cc" />
      <path
         sodipodi:nodetypes="cc"
         id="path3178"
         d="M 223.29036,-3.2997195 L 223.29036,3.6063107"
         style="fill:none;fill-rule:evenodd;stroke:#000000;stroke-width:0.03196126;stroke-linecap:butt;stroke-linejoin:miter;stroke-miterlimit:4;stroke-dasharray:none;stroke-opacity:1" />
    </g>
    <g
       transform="translate(-219.68504,3.3622195)"
       id="g3180">
      <path
         sodipodi:nodetypes="cc"
         id="path3182"
         d="M 219.74754,0.062511534 L 226.70838,0.062511534"
         style="fill:none;fill-rule:evenodd;stroke:#000000;stroke-width:0.03221492;stroke-linecap:butt;stroke-linejoin:miter;stroke-miterlimit:4;stroke-dasharray:none;stroke-opacity:1" />
      <path
         style="fill:none;fill-rule:evenodd;stroke:#000000;stroke-width:0.03196126;stroke-linecap:butt;stroke-linejoin:miter;stroke-miterlimit:4;stroke-dasharray:none;stroke-opacity:1"
         d="M 223.29036,-3.2997195 L 223.29036,3.6063107"
         id="path3184"
         sodipodi:nodetypes="cc" />
    </g>
  </g>
</svg>
