<?xml version="1.0" encoding="UTF-8" standalone="no"?>
<!-- Created with Inkscape (http://www.inkscape.org/) -->

<svg
   id="svg2457"
   sodipodi:version="0.32"
   inkscape:version="1.2.2 (b0a8486541, 2022-12-01)"
   width="230.31497"
   height="318.84155"
   version="1.0"
   sodipodi:docname="bot_d.svg"
   inkscape:output_extension="org.inkscape.output.svg.inkscape"
   xmlns:inkscape="http://www.inkscape.org/namespaces/inkscape"
   xmlns:sodipodi="http://sodipodi.sourceforge.net/DTD/sodipodi-0.dtd"
   xmlns="http://www.w3.org/2000/svg"
   xmlns:svg="http://www.w3.org/2000/svg"
   xmlns:rdf="http://www.w3.org/1999/02/22-rdf-syntax-ns#"
   xmlns:cc="http://creativecommons.org/ns#"
   xmlns:dc="http://purl.org/dc/elements/1.1/">
  <metadata
     id="metadata2462">
    <rdf:RDF>
      <cc:Work
         rdf:about="">
        <dc:format>image/svg+xml</dc:format>
        <dc:type
           rdf:resource="http://purl.org/dc/dcmitype/StillImage" />
      </cc:Work>
    </rdf:RDF>
  </metadata>
  <defs
     id="defs2460">
    <inkscape:perspective
       sodipodi:type="inkscape:persp3d"
       inkscape:vp_x="0 : 526.18109 : 1"
       inkscape:vp_y="0 : 1000 : 0"
       inkscape:vp_z="744.09448 : 526.18109 : 1"
       inkscape:persp3d-origin="372.04724 : 350.78739 : 1"
       id="perspective2464" />
  </defs>
  <sodipodi:namedview
     inkscape:window-height="914"
     inkscape:window-width="827"
     inkscape:pageshadow="2"
     inkscape:pageopacity="0.0"
     guidetolerance="10.0"
     gridtolerance="10.0"
     objecttolerance="10.0"
     borderopacity="1.0"
     bordercolor="#666666"
     pagecolor="#ffffff"
     id="base"
     showgrid="false"
     inkscape:zoom="2.1702099"
     inkscape:cx="118.65212"
     inkscape:cy="140.5394"
     inkscape:window-x="26"
     inkscape:window-y="23"
     inkscape:current-layer="svg2457"
     inkscape:showpageshadow="2"
     inkscape:pagecheckerboard="0"
     inkscape:deskcolor="#d1d1d1"
     inkscape:window-maximized="0" />
  <g
     id="g3291">
    <path
       id="path2474"
       d="m 172.83323,217.24093 c -115.222153,-144.827287 -57.61108,-72.41364 0,0 z m -7.61083,10.23704 c -0.20245,0.015 -0.39228,0.29385 -0.66713,0.77988 -0.21662,0.38306 -0.64263,1.10122 -0.949,1.59733 -0.30637,0.49612 -0.95394,1.57855 -1.4376,2.4054 -1.35039,2.30863 -5.16753,7.71222 -8.4283,11.92835 -4.41653,5.71051 -4.3984,5.6839 -6.65713,8.11822 -0.79445,0.85618 -1.49987,1.65954 -1.56915,1.78056 -0.16997,0.29693 0.31669,0.97895 2.01077,2.82822 0.75746,0.82686 2.02863,2.3152 2.82352,3.30743 0.7949,0.99222 2.0615,2.54822 2.81413,3.45776 1.14257,1.38076 2.33276,2.99526 4.30811,5.83497 1.37498,1.97663 5.24152,8.54822 6.44102,10.94645 0.34697,0.69351 0.70126,1.34364 0.78458,1.447 0.39462,0.48951 0.73077,0.11381 2.20808,-2.44298 2.14503,-3.71242 3.91734,-6.554 5.20543,-8.35313 0.5004,-0.69892 1.01292,-1.4376 1.14162,-1.64432 0.43721,-0.7015 3.9339,-5.17661 5.75512,-7.36653 0.9971,-1.19895 2.87869,-3.29416 4.18126,-4.65578 1.32795,-1.38811 2.36781,-2.60035 2.36781,-2.75774 0,-0.15668 -1.02369,-1.35406 -2.31613,-2.71078 -3.66563,-3.84753 -7.39481,-8.38342 -9.78603,-11.90015 -0.50603,-0.74417 -1.64097,-2.40699 -2.51816,-3.69737 -1.58737,-2.33483 -3.30798,-5.12153 -4.40206,-7.12693 -0.68737,-1.25974 -1.01488,-1.79779 -1.31076,-1.77586 z m 41.83141,12.25251 c -0.24719,0.005 -0.49912,0.33541 -1.28727,1.65371 -1.28822,2.15471 -3.45292,5.04696 -5.68933,7.60613 -1.13181,1.29519 -1.74298,2.1174 -1.74298,2.33964 0,0.1884 0.20795,0.54171 0.46512,0.78457 1.48741,1.40529 5.71219,7.0018 7.34774,9.73435 0.64385,1.07577 0.85303,1.315 1.11343,1.27787 0.22403,-0.032 0.80282,-0.75993 1.9262,-2.41949 1.89899,-2.8054 4.16121,-5.82666 5.7457,-7.67192 0.68072,-0.79266 1.14021,-1.45866 1.13695,-1.65371 -0.003,-0.20113 -0.61034,-0.98101 -1.57855,-2.02955 -1.8223,-1.97336 -2.93723,-3.43368 -5.33698,-7.00009 -1.22172,-1.81555 -1.82203,-2.589 -2.04835,-2.62151 -0.0166,-0.002 -0.0352,-3.5e-4 -0.0517,0 z m 0.18792,27.80304 c -138.161153,-178.35568 -69.08058,-89.17784 0,0 z"
       style="fill:#e00000;fill-opacity:1"
       sodipodi:nodetypes="ccssssssssssscssscssscsccssssscsssscccscscc" />
  </g>
  <g
     id="g3796"
     transform="translate(1.593878e-6,0)">
    <rect
       ry="11.25"
       rx="11.25"
       y="3.4247196"
       x="3.6058116"
       height="311.81104"
       width="223.22835"
       id="rect2382"
       style="fill:none;fill-opacity:1;fill-rule:nonzero;stroke:#000000;stroke-width:0.03543307;stroke-linejoin:round;stroke-miterlimit:4;stroke-dasharray:none;stroke-opacity:1" />
    <g
       transform="translate(3.5433116,3.3622195)"
       id="g3164">
      <path
         style="fill:none;fill-rule:evenodd;stroke:#000000;stroke-width:0.03221492;stroke-linecap:butt;stroke-linejoin:miter;stroke-miterlimit:4;stroke-dasharray:none;stroke-opacity:1"
         d="M 219.74754,0.062511534 L 226.70838,0.062511534"
         id="path3160"
         sodipodi:nodetypes="cc" />
      <path
         sodipodi:nodetypes="cc"
         id="path3162"
         d="M 223.29036,-3.2997195 L 223.29036,3.6063107"
         style="fill:none;fill-rule:evenodd;stroke:#000000;stroke-width:0.03196126;stroke-linecap:butt;stroke-linejoin:miter;stroke-miterlimit:4;stroke-dasharray:none;stroke-opacity:1" />
    </g>
    <g
       transform="matrix(1.0001093,0,0,1,3.519309,315.17275)"
       id="g3168">
      <path
         sodipodi:nodetypes="cc"
         id="path3170"
         d="M 219.74754,0.062511534 L 226.70838,0.062511534"
         style="fill:none;fill-rule:evenodd;stroke:#000000;stroke-width:0.03221492;stroke-linecap:butt;stroke-linejoin:miter;stroke-miterlimit:4;stroke-dasharray:none;stroke-opacity:1" />
      <path
         style="fill:none;fill-rule:evenodd;stroke:#000000;stroke-width:0.03196126;stroke-linecap:butt;stroke-linejoin:miter;stroke-miterlimit:4;stroke-dasharray:none;stroke-opacity:1"
         d="M 223.29036,-3.2997195 L 223.29036,3.6063107"
         id="path3172"
         sodipodi:nodetypes="cc" />
    </g>
    <g
       id="g3174"
       transform="matrix(1.0001093,0,0,1,-219.70906,315.17275)">
      <path
         style="fill:none;fill-rule:evenodd;stroke:#000000;stroke-width:0.03221492;stroke-linecap:butt;stroke-linejoin:miter;stroke-miterlimit:4;stroke-dasharray:none;stroke-opacity:1"
         d="M 219.74754,0.062511534 L 226.70838,0.062511534"
         id="path3176"
         sodipodi:nodetypes="cc" />
      <path
         sodipodi:nodetypes="cc"
         id="path3178"
         d="M 223.29036,-3.2997195 L 223.29036,3.6063107"
         style="fill:none;fill-rule:evenodd;stroke:#000000;stroke-width:0.03196126;stroke-linecap:butt;stroke-linejoin:miter;stroke-miterlimit:4;stroke-dasharray:none;stroke-opacity:1" />
    </g>
    <g
       transform="translate(-219.68504,3.3622195)"
       id="g3180">
      <path
         sodipodi:nodetypes="cc"
         id="path3182"
         d="M 219.74754,0.062511534 L 226.70838,0.062511534"
         style="fill:none;fill-rule:evenodd;stroke:#000000;stroke-width:0.03221492;stroke-linecap:butt;stroke-linejoin:miter;stroke-miterlimit:4;stroke-dasharray:none;stroke-opacity:1" />
      <path
         style="fill:none;fill-rule:evenodd;stroke:#000000;stroke-width:0.03196126;stroke-linecap:butt;stroke-linejoin:miter;stroke-miterlimit:4;stroke-dasharray:none;stroke-opacity:1"
         d="M 223.29036,-3.2997195 L 223.29036,3.6063107"
         id="path3184"
         sodipodi:nodetypes="cc" />
    </g>
  </g>
</svg>
